<svg height="512" viewBox="0 0 128 128" width="512" xmlns="http://www.w3.org/2000/svg"><g><path d="m122.041 58.128-12.221-2.478-12.432-21.122a1.751 1.751 0 0 0 -1.508-.862h-5.967v-6.112a1.749 1.749 0 0 0 -1.75-1.75h-6.1a1.75 1.75 0 0 0 -1.75 1.75v6.112h-4.577v-6.112a1.749 1.749 0 0 0 -1.75-1.75h-67.679a1.749 1.749 0 0 0 -1.75 1.75v65.506a1.75 1.75 0 0 0 1.75 1.75h10.506a15.216 15.216 0 0 0 26.093 0h42.188a15.216 15.216 0 0 0 26.093 0h10.506a1.75 1.75 0 0 0 1.75-1.75v-33.216a1.751 1.751 0 0 0 -1.402-1.716zm-2.1 12.842h-4.811v-3.241h4.813zm-14.3-15.51h-21.828v-10.842h15.452zm-21.828-26.16h2.6v4.362h-2.6zm11.066 7.862 2.326 3.952h-15.142a1.75 1.75 0 0 0 -1.75 1.75v14.346a1.75 1.75 0 0 0 1.75 1.75h26.471l11.409 2.314v2.955h-6.563a1.75 1.75 0 0 0 -1.75 1.75v6.741a1.749 1.749 0 0 0 1.75 1.75h6.563v4.647h-8.723a15.217 15.217 0 0 0 -26.159 0h-9.325v-41.951zm-22.643-7.862v49.817h-29.3a15.217 15.217 0 0 0 -26.159 0h-8.72v-49.817zm-64.179 62.01v-8.693h7.175a15.1 15.1 0 0 0 .014 8.693zm21.8 7.386a11.76 11.76 0 1 1 11.76-11.759 11.772 11.772 0 0 1 -11.758 11.763zm14.616-7.386a15.1 15.1 0 0 0 .014-8.693h39.026a15.1 15.1 0 0 0 .014 8.693zm53.668 7.39a11.76 11.76 0 1 1 11.759-11.763 11.772 11.772 0 0 1 -11.759 11.763zm21.8-7.386h-7.189a15.1 15.1 0 0 0 .014-8.693h7.175z"/><path d="m29.859 80.158a6.778 6.778 0 1 0 6.779 6.779 6.786 6.786 0 0 0 -6.779-6.779zm0 10.056a3.278 3.278 0 1 1 3.279-3.277 3.281 3.281 0 0 1 -3.279 3.277z"/><path d="m98.141 80.158a6.778 6.778 0 1 0 6.778 6.779 6.787 6.787 0 0 0 -6.778-6.779zm0 10.056a3.278 3.278 0 1 1 3.278-3.277 3.282 3.282 0 0 1 -3.278 3.277z"/><path d="m82.063 65.75h4.006a1.75 1.75 0 1 0 0-3.5h-4.006a1.75 1.75 0 1 0 0 3.5z"/><path d="m19.676 55.655h5.309v-2.809h-5.309v-1.575h5.829v-2.809h-8.978v11.154h3.149z"/><path d="m31.888 58.122h3.881l.568 1.494h3.555l-4.286-11.154h-3.555l-4.287 11.154h3.556zm1.949-5.032 1.039 2.71h-2.094z"/><path d="m47.105 57.2a5.888 5.888 0 0 1 -3.686-1.364l-1.753 2.095a7.968 7.968 0 0 0 5.325 1.883c2.793 0 4.595-1.38 4.595-3.734 0-2.127-1.624-2.825-4.221-3.377-1.592-.341-1.981-.519-1.981-1.088 0-.422.373-.73 1.136-.73a5.576 5.576 0 0 1 3.18 1.115l1.575-2.225a7.154 7.154 0 0 0 -4.676-1.51c-2.646 0-4.4 1.446-4.4 3.67 0 2.322 1.868 2.954 4.287 3.507 1.542.357 1.932.438 1.932.974.002.489-.453.784-1.313.784z"/><path d="m57.321 59.616h3.149v-8.345h3.296v-2.809h-9.741v2.809h3.296z"/></g></svg>